<?xml version="1.0" encoding="utf-8"?>
<!-- Generator: Adobe Illustrator 24.0.3, SVG Export Plug-In . SVG Version: 6.00 Build 0)  -->
<svg version="1.1" id="レイヤー_1" xmlns="http://www.w3.org/2000/svg" xmlns:xlink="http://www.w3.org/1999/xlink" x="0px"
	 y="0px" viewBox="0 0 150 60" style="enable-background:new 0 0 150 60;" xml:space="preserve">
<style type="text/css">
	.st0{fill:#231815;}
</style>
<path class="st0" d="M148.12,37.61c0.02-0.29,0.48-7.11-3.95-11.89c-2.71-2.92-6.54-4.4-11.38-4.4c-8.94,0-14.41,6.3-15.95,13.3
	c-1.9-0.04-4.69-0.09-7.77-0.13c-0.01-0.46-0.01-0.92-0.01-1.39c0-2.92-1.31-9.72-13.44-9.72H65V14.3c0-1.55-1.25-2.8-2.8-2.8
	s-2.8,1.25-2.8,2.8v9.07H46.11c-1.52,0-2.76,1.22-2.79,2.73c0,0.01,0,0.01,0,0.02c0,0.01,0,0.02,0,0.02c0,0.01,0,0.02,0,0.02
	c0,0,0,0.01,0,0.01c-0.17,2.73-0.14,5.54-0.12,8.24c0.06,5.96,0.12,12.12-2.27,14.54c-0.92,0.93-2.31,1.38-4.26,1.38
	c-2.34,0-3.99-0.54-5.04-1.64c-2.54-2.67-2.23-9.1-1.92-15.33c0.12-2.4,0.24-4.88,0.21-7.29c-0.01-0.5-0.15-0.96-0.38-1.36
	c-0.39-1.08-1.41-1.87-2.63-1.87H7.46V9.65h24.85c1.55,0,2.8-1.25,2.8-2.8s-1.25-2.8-2.8-2.8H4.66c-1.55,0-2.8,1.25-2.8,2.8v45.44
	c0,1.55,1.25,2.8,2.8,2.8s2.8-1.25,2.8-2.8V28.46h16.83c-0.04,1.54-0.11,3.11-0.18,4.64c-0.38,7.75-0.73,15.06,3.46,19.47
	c2.13,2.24,5.19,3.37,9.09,3.37c3.47,0,6.24-1.02,8.24-3.04c0.62-0.62,1.13-1.32,1.57-2.07c1.08,1.28,2.49,2.41,4.36,3.1
	c0.32,0.12,0.65,0.17,0.97,0.17c1.14,0,2.21-0.7,2.63-1.83c0.53-1.45-0.21-3.06-1.66-3.59c-3.47-1.28-4.04-6.34-4.05-6.43
	c-0.01-0.06-0.02-0.11-0.03-0.16c0.16-2.44,0.14-5.05,0.11-7.72c-0.02-1.79-0.03-3.61,0.01-5.4h10.6V46.7
	c0,5.39,3.18,8.11,6.15,8.87c0.68,0.17,1.36,0.25,2.05,0.25c3.35,0,6.63-2,8.44-5.33c0.74-1.36,0.23-3.06-1.13-3.8
	c-1.36-0.74-3.06-0.23-3.8,1.13c-1.1,2.04-2.94,2.62-4.18,2.31C65.25,49.71,65,47.8,65,46.7V28.97h30.63c7.84,0,7.84,3.1,7.84,4.12
	c0,0.44,0,0.88,0.01,1.31c-3.16-0.04-6.26-0.07-8.74-0.07l-0.39,0c-2.95-0.02-7.82-0.02-11.06,3.21c-1.85,1.84-2.78,4.38-2.78,7.53
	c0,7.19,5.39,10.41,10.74,10.41c0.71,0,1.45,0.03,2.22,0.06c0.88,0.03,1.8,0.07,2.75,0.07c3.46,0,7.21-0.49,10.03-3.31
	c0.28-0.28,0.52-0.57,0.75-0.88c0.83,1.2,1.87,2.3,3.19,3.18c0.48,0.32,1.02,0.48,1.56,0.47c0.9,0,1.79-0.43,2.33-1.24
	c0.86-1.28,0.52-3.02-0.77-3.88c-3.02-2.02-3.79-6.72-3.86-9.87c2.74,0.04,5.21,0.09,7,0.12c0.3,3.73,1.71,7.14,4.04,9.73
	c2.12,2.35,6.02,5.14,12.61,5.14c10.51,0,13.84-7.04,13.98-7.34c0.64-1.41,0.03-3.09-1.37-3.73c-1.41-0.64-3.06-0.04-3.7,1.36
	c-0.08,0.17-2.13,4.11-8.91,4.11c-3.64,0-6.48-1.11-8.45-3.29c-1.42-1.58-2.31-3.67-2.58-6h23.26
	C146.79,40.2,148,39.07,148.12,37.61z M102.28,48.36c-1.87,1.87-5.29,1.74-8.61,1.61c-0.85-0.03-1.67-0.06-2.44-0.06
	c-1.92,0-5.14-0.63-5.14-4.81c0-1.64,0.37-2.8,1.14-3.57c1.49-1.49,4.6-1.58,6.68-1.58c0.14,0,0.28,0,0.42,0l0.41,0
	c2.51,0,5.66,0.03,8.86,0.07C103.65,43.9,103.54,47.1,102.28,48.36z M122.6,34.6c1.33-4.23,4.77-7.68,10.18-7.68
	c3.2,0,5.64,0.87,7.25,2.59c1.43,1.53,2.05,3.52,2.31,5.1H122.6z"/>
</svg>
