<?xml version="1.0" encoding="utf-8"?>
<!-- Generator: Adobe Illustrator 24.0.3, SVG Export Plug-In . SVG Version: 6.00 Build 0)  -->
<svg version="1.1" id="レイヤー_1" xmlns="http://www.w3.org/2000/svg" xmlns:xlink="http://www.w3.org/1999/xlink" x="0px"
	 y="0px" viewBox="0 0 100 120" style="enable-background:new 0 0 100 120;" xml:space="preserve">
<style type="text/css">
	.st0{fill:#231815;}
</style>
<path class="st0" d="M50.5,10.14c19.59,0,35.52,15.93,35.52,35.52S70.09,81.18,50.5,81.18S14.98,65.24,14.98,45.66
	S30.91,10.14,50.5,10.14 M50.5,3.14c-23.48,0-42.52,19.04-42.52,42.52S27.02,88.18,50.5,88.18s42.52-19.04,42.52-42.52
	S73.98,3.14,50.5,3.14L50.5,3.14z"/>
<path class="st0" d="M50.5,20.31c13.98,0,25.35,11.37,25.35,25.35S64.48,71,50.5,71S25.15,59.63,25.15,45.66S36.52,20.31,50.5,20.31
	 M50.5,17.31c-15.66,0-28.35,12.69-28.35,28.35C22.15,61.31,34.84,74,50.5,74c15.66,0,28.35-12.69,28.35-28.35
	C78.85,30,66.16,17.31,50.5,17.31L50.5,17.31z"/>
<g>
	<path class="st0" d="M15.28,99.22H9.69v3.54h5.39v2.09H9.69v7.02H7.28V97.12h8V99.22z"/>
	<path class="st0" d="M19.12,102.57v5.34c0,1.54,0.66,2.31,1.98,2.31c1.32,0,1.98-0.77,1.98-2.31v-5.34h2.34v5.39
		c0,0.75-0.1,1.39-0.3,1.93c-0.19,0.48-0.53,0.92-1.01,1.31c-0.79,0.63-1.79,0.95-3.01,0.95c-1.21,0-2.21-0.32-3-0.95
		c-0.48-0.39-0.83-0.82-1.03-1.31c-0.19-0.43-0.29-1.08-0.29-1.93v-5.39H19.12z"/>
	<path class="st0" d="M30.35,104.57v7.3h-2.34v-7.3h-1v-2.01h1v-3.41h2.34v3.41h1.82v2.01H30.35z"/>
	<path class="st0" d="M41.21,102.57h2.35v9.3h-2.35v-0.97c-0.96,0.83-2,1.24-3.1,1.24c-1.4,0-2.55-0.46-3.47-1.39
		c-0.91-0.95-1.36-2.13-1.36-3.55c0-1.39,0.45-2.56,1.36-3.49s2.04-1.39,3.41-1.39c1.18,0,2.23,0.45,3.17,1.34V102.57z
		 M35.67,107.19c0,0.89,0.26,1.62,0.78,2.18c0.53,0.57,1.2,0.85,2.01,0.85c0.87,0,1.56-0.27,2.1-0.82c0.53-0.57,0.8-1.29,0.8-2.16
		s-0.27-1.59-0.8-2.16c-0.53-0.55-1.22-0.83-2.08-0.83c-0.8,0-1.47,0.28-2.01,0.84C35.93,105.66,35.67,106.36,35.67,107.19z"/>
	<path class="st0" d="M54.86,107.73h-7.25c0.06,0.76,0.33,1.37,0.81,1.82c0.48,0.45,1.09,0.67,1.84,0.67c0.58,0,1.06-0.13,1.44-0.38
		c0.37-0.25,0.8-0.73,1.28-1.41l1.97,1.01c-0.3,0.48-0.63,0.89-0.97,1.23c-0.34,0.34-0.7,0.62-1.09,0.84s-0.81,0.38-1.26,0.48
		c-0.45,0.1-0.94,0.15-1.46,0.15c-1.51,0-2.72-0.45-3.63-1.34c-0.91-0.9-1.37-2.09-1.37-3.57c0-1.47,0.44-2.66,1.33-3.57
		c0.89-0.9,2.08-1.35,3.55-1.35c1.49,0,2.66,0.44,3.53,1.31c0.86,0.87,1.29,2.07,1.29,3.6L54.86,107.73z M52.47,105.97
		c-0.33-1.15-1.11-1.72-2.36-1.72c-0.28,0-0.55,0.04-0.8,0.12s-0.48,0.19-0.68,0.34s-0.38,0.33-0.52,0.54
		c-0.15,0.21-0.26,0.45-0.33,0.72H52.47z"/>
	<path class="st0" d="M56.5,110.8c0-0.36,0.14-0.67,0.43-0.93c0.28-0.26,0.62-0.39,1.02-0.39s0.73,0.13,1.02,0.39
		c0.28,0.26,0.43,0.57,0.43,0.94c0,0.37-0.14,0.68-0.43,0.95c-0.28,0.25-0.62,0.38-1.02,0.38c-0.41,0-0.75-0.13-1.03-0.38
		C56.64,111.5,56.5,111.18,56.5,110.8z"/>
	<path class="st0" d="M68.46,102.57h2.35v9.3h-2.35v-0.97c-0.96,0.83-2,1.24-3.1,1.24c-1.4,0-2.55-0.46-3.47-1.39
		c-0.91-0.95-1.36-2.13-1.36-3.55c0-1.39,0.45-2.56,1.36-3.49s2.04-1.39,3.41-1.39c1.18,0,2.23,0.45,3.17,1.34V102.57z
		 M62.91,107.19c0,0.89,0.26,1.62,0.78,2.18c0.53,0.57,1.2,0.85,2.01,0.85c0.87,0,1.56-0.27,2.1-0.82c0.53-0.57,0.8-1.29,0.8-2.16
		s-0.27-1.59-0.8-2.16c-0.53-0.55-1.22-0.83-2.08-0.83c-0.8,0-1.47,0.28-2.01,0.84C63.18,105.66,62.91,106.36,62.91,107.19z"/>
	<path class="st0" d="M75.23,116.93H72.9v-14.36h2.34v1.01c0.92-0.85,1.97-1.27,3.13-1.27c1.39,0,2.54,0.47,3.44,1.41
		c0.91,0.94,1.37,2.12,1.37,3.54c0,1.39-0.45,2.56-1.36,3.49c-0.9,0.92-2.04,1.38-3.41,1.38c-1.18,0-2.24-0.44-3.18-1.31V116.93z
		 M80.79,107.28c0-0.89-0.26-1.62-0.79-2.18c-0.53-0.57-1.2-0.85-2.01-0.85c-0.86,0-1.55,0.27-2.09,0.82
		c-0.53,0.55-0.8,1.27-0.8,2.16c0,0.87,0.27,1.59,0.8,2.16c0.53,0.55,1.22,0.83,2.08,0.83c0.81,0,1.48-0.28,2-0.84
		C80.52,108.82,80.79,108.12,80.79,107.28z"/>
	<path class="st0" d="M86.71,116.93h-2.34v-14.36h2.34v1.01c0.92-0.85,1.97-1.27,3.13-1.27c1.39,0,2.54,0.47,3.44,1.41
		c0.91,0.94,1.37,2.12,1.37,3.54c0,1.39-0.45,2.56-1.36,3.49c-0.9,0.92-2.04,1.38-3.41,1.38c-1.18,0-2.24-0.44-3.18-1.31V116.93z
		 M92.26,107.28c0-0.89-0.26-1.62-0.79-2.18c-0.53-0.57-1.2-0.85-2.01-0.85c-0.86,0-1.55,0.27-2.09,0.82
		c-0.53,0.55-0.8,1.27-0.8,2.16c0,0.87,0.27,1.59,0.8,2.16c0.53,0.55,1.22,0.83,2.08,0.83c0.81,0,1.48-0.28,2-0.84
		C91.99,108.82,92.26,108.12,92.26,107.28z"/>
</g>
</svg>
